<svg width="240" height="80" viewBox="0 0 240 80" fill="none" xmlns="http://www.w3.org/2000/svg">
<path d="M46.4 51.2C49.9346 51.2 52.8 48.3346 52.8 44.8C52.8 41.2654 49.9346 38.4 46.4 38.4C42.8654 38.4 40 41.2654 40 44.8C40 48.3346 42.8654 51.2 46.4 51.2Z" fill="#6E56E0"/>
<path d="M61.6 56C63.8091 56 65.6 54.2091 65.6 52C65.6 49.7909 63.8091 48 61.6 48C59.3908 48 57.6 49.7909 57.6 52C57.6 54.2091 59.3908 56 61.6 56Z" fill="#6E56E0"/>
<path d="M62.4 43.2C67.702 43.2 72 38.9019 72 33.6C72 28.2981 67.702 24 62.4 24C57.0981 24 52.8 28.2981 52.8 33.6C52.8 38.9019 57.0981 43.2 62.4 43.2Z" fill="#6E56E0"/>
<path d="M90.6677 32.1956H94.1615V48.5H90.6677V41.5124H84.8913V48.5H81.3975V32.1956H84.8913V38.0186H90.6677V32.1956ZM96.9558 48.5V32.1956H103.594C104.487 32.1956 105.294 32.4208 106.016 32.8711C106.738 33.3214 107.309 33.927 107.728 34.6879C108.155 35.441 108.369 36.2717 108.369 37.1801C108.369 37.8789 108.252 38.531 108.02 39.1366C107.787 39.7345 107.453 40.2663 107.018 40.7321C106.591 41.1902 106.086 41.559 105.504 41.8385L109.37 48.5H105.341L101.661 42.1646H100.45V48.5H96.9558ZM100.45 38.6708H103.175C103.485 38.6708 103.769 38.5932 104.025 38.4379C104.281 38.2748 104.487 38.0613 104.642 37.7973C104.797 37.5334 104.875 37.2422 104.875 36.9239C104.875 36.6056 104.797 36.3144 104.642 36.0504C104.487 35.7865 104.281 35.5768 104.025 35.4216C103.769 35.2585 103.485 35.177 103.175 35.177H100.45V38.6708ZM120.511 32.1956H124.004V48.5H120.511V41.5124H114.734V48.5H111.24V32.1956H114.734V38.0186H120.511V32.1956ZM126.799 48.5V32.1956H133.437C134.33 32.1956 135.137 32.4208 135.859 32.8711C136.581 33.3214 137.152 33.927 137.571 34.6879C137.998 35.441 138.212 36.2717 138.212 37.1801C138.212 37.8789 138.095 38.531 137.862 39.1366C137.629 39.7345 137.296 40.2663 136.861 40.7321C136.434 41.1902 135.929 41.559 135.347 41.8385L139.213 48.5H135.184L131.504 42.1646H130.292V48.5H126.799ZM130.292 38.6708H133.018C133.328 38.6708 133.612 38.5932 133.868 38.4379C134.124 38.2748 134.33 38.0613 134.485 37.7973C134.64 37.5334 134.718 37.2422 134.718 36.9239C134.718 36.6056 134.64 36.3144 134.485 36.0504C134.33 35.7865 134.124 35.5768 133.868 35.4216C133.612 35.2585 133.328 35.177 133.018 35.177H130.292V38.6708Z" fill="white"/>
<g opacity="0.32">
<path d="M211.5 42.99L206.49 48.01" stroke="#898989" stroke-width="1.5" stroke-miterlimit="10" stroke-linecap="round" stroke-linejoin="round"/>
<path d="M194.5 42.99H211.5" stroke="#898989" stroke-width="1.5" stroke-miterlimit="10" stroke-linecap="round" stroke-linejoin="round"/>
<path d="M194.5 37.01L199.51 31.99" stroke="#898989" stroke-width="1.5" stroke-miterlimit="10" stroke-linecap="round" stroke-linejoin="round"/>
<path d="M211.5 37.01H194.5" stroke="#898989" stroke-width="1.5" stroke-miterlimit="10" stroke-linecap="round" stroke-linejoin="round"/>
</g>
</svg>
