<svg width="122" height="24" viewBox="0 0 122 24" fill="none" xmlns="http://www.w3.org/2000/svg">
<path fill-rule="evenodd" clip-rule="evenodd" d="M24 12C24 18.6274 18.6274 24 12 24C5.37258 24 0 18.6274 0 12C0 5.37258 5.37258 0 12 0C18.6274 0 24 5.37258 24 12ZM20.3621 16.7188C18.7141 19.633 15.5868 21.6 12 21.6C6.69807 21.6 2.4 17.3019 2.4 12C2.4 6.69807 6.69807 2.4 12 2.4C17.3019 2.4 21.6 6.69807 21.6 12C21.6 13.2858 21.3472 14.5126 20.8886 15.6333H15.1235V6.13333H16.0224V5.7C16.0224 5.47778 15.9669 5.27222 15.856 5.08333C15.745 4.89444 15.5008 4.8 15.1235 4.8C14.5131 4.8 13.8749 4.87222 13.209 5.01667C12.5542 5.16111 11.9105 5.4 11.2779 5.73333C10.6453 6.06667 10.046 6.50556 9.48 7.05C8.91399 7.59444 8.41457 8.27778 7.98173 9.1C7.56 9.91111 7.2215 10.8722 6.96624 11.9833C6.72208 13.0833 6.6 14.3556 6.6 15.8V16.8H7.18266C7.42682 16.8 7.63769 16.7389 7.81526 16.6167C8.00393 16.4944 8.09827 16.2222 8.09827 15.8C8.09827 15.0333 8.13711 14.3222 8.2148 13.6667C8.29249 13.0111 8.40902 12.3944 8.56439 11.8167H13.6252V15.8C13.6252 16.0111 13.6529 16.1833 13.7084 16.3167C13.7639 16.4389 13.8361 16.5389 13.9249 16.6167C14.0247 16.6833 14.1357 16.7333 14.2578 16.7667C14.3799 16.7889 14.502 16.8 14.624 16.8H19.8347C19.979 16.8 20.1177 16.7833 20.2509 16.75C20.2891 16.7412 20.3262 16.7308 20.3621 16.7188ZM10.945 7.68333C11.7551 6.98333 12.6486 6.52222 13.6252 6.3V10.5667H8.98058C9.48 9.33333 10.1348 8.37222 10.945 7.68333Z" fill="white"/>
<path d="M32.96 18L35.128 6.8H36.472L39.344 14.344L42.2 6.8H43.544L45.72 18H44.024L42.576 10.504L39.896 17.576H38.776L36.104 10.504L34.656 18H32.96ZM50.3863 18.208C49.6503 18.208 48.9783 18.0187 48.3703 17.64C47.7676 17.2613 47.2849 16.7547 46.9223 16.12C46.5649 15.48 46.3863 14.7733 46.3863 14C46.3863 13.4133 46.4903 12.8667 46.6983 12.36C46.9063 11.848 47.1916 11.4 47.5543 11.016C47.9223 10.6267 48.3489 10.3227 48.8343 10.104C49.3196 9.88533 49.8369 9.776 50.3863 9.776C50.9996 9.776 51.5623 9.904 52.0743 10.16C52.5863 10.4107 53.0236 10.76 53.3863 11.208C53.7489 11.6507 54.0156 12.1627 54.1863 12.744C54.3569 13.32 54.4076 13.9333 54.3383 14.584H48.1703C48.2396 14.952 48.3729 15.2853 48.5703 15.584C48.7729 15.8773 49.0289 16.1093 49.3383 16.28C49.6529 16.4507 50.0023 16.5387 50.3863 16.544C50.7916 16.544 51.1596 16.4427 51.4903 16.24C51.8263 16.0373 52.1009 15.7573 52.3143 15.4L54.0023 15.792C53.6823 16.5013 53.1996 17.0827 52.5543 17.536C51.9089 17.984 51.1863 18.208 50.3863 18.208ZM48.1143 13.312H52.6583C52.6049 12.928 52.4689 12.5813 52.2503 12.272C52.0369 11.9573 51.7676 11.7093 51.4423 11.528C51.1223 11.3413 50.7703 11.248 50.3863 11.248C50.0076 11.248 49.6556 11.3387 49.3303 11.52C49.0103 11.7013 48.7436 11.9493 48.5303 12.264C48.3223 12.5733 48.1836 12.9227 48.1143 13.312ZM62.8631 12.984V18H61.1991V13.392C61.1991 13.0347 61.1111 12.7093 60.9351 12.416C60.7645 12.1227 60.5325 11.8907 60.2391 11.72C59.9511 11.544 59.6258 11.456 59.2631 11.456C58.9111 11.456 58.5885 11.544 58.2951 11.72C58.0018 11.8907 57.7671 12.1227 57.5911 12.416C57.4151 12.7093 57.3271 13.0347 57.3271 13.392V18H55.6631V10H57.3271V10.848C57.6045 10.5173 57.9458 10.256 58.3511 10.064C58.7565 9.872 59.1938 9.776 59.6631 9.776C60.2551 9.776 60.7938 9.92 61.2791 10.208C61.7645 10.496 62.1485 10.8827 62.4311 11.368C62.7191 11.8533 62.8631 12.392 62.8631 12.984ZM64.14 15V10H65.804V14.592C65.804 14.9493 65.892 15.2747 66.068 15.568C66.244 15.8613 66.4787 16.096 66.772 16.272C67.0653 16.4427 67.388 16.528 67.74 16.528C68.0973 16.528 68.42 16.4427 68.708 16.272C69.0013 16.096 69.2333 15.8613 69.404 15.568C69.58 15.2747 69.668 14.9493 69.668 14.592V10H71.332L71.34 18H69.676L69.668 17.136C69.396 17.4667 69.0573 17.728 68.652 17.92C68.2467 18.112 67.812 18.208 67.348 18.208C66.756 18.208 66.2173 18.064 65.732 17.776C65.2467 17.488 64.86 17.1013 64.572 16.616C64.284 16.1307 64.14 15.592 64.14 15ZM72.9444 18V10H74.6084V10.848C74.8857 10.5173 75.2244 10.256 75.6244 10.064C76.0297 9.872 76.467 9.776 76.9364 9.776C77.507 9.776 78.0324 9.91467 78.5124 10.192C78.9924 10.464 79.3737 10.8267 79.6564 11.28C79.939 10.8267 80.315 10.464 80.7844 10.192C81.259 9.91467 81.7817 9.776 82.3524 9.776C82.9444 9.776 83.483 9.92 83.9684 10.208C84.4537 10.496 84.8404 10.8827 85.1284 11.368C85.4164 11.8533 85.5604 12.392 85.5604 12.984V18H83.8964V13.408C83.8964 13.056 83.811 12.7333 83.6404 12.44C83.4697 12.1467 83.2404 11.9093 82.9524 11.728C82.6644 11.5467 82.3444 11.456 81.9924 11.456C81.6404 11.456 81.3204 11.5413 81.0324 11.712C80.7444 11.8827 80.515 12.1147 80.3444 12.408C80.1737 12.7013 80.0884 13.0347 80.0884 13.408V18H78.4244V13.408C78.4244 13.0347 78.339 12.7013 78.1684 12.408C77.9977 12.1147 77.7657 11.8827 77.4724 11.712C77.1844 11.5413 76.8644 11.456 76.5124 11.456C76.1657 11.456 75.8457 11.5467 75.5524 11.728C75.2644 11.9093 75.035 12.1467 74.8644 12.44C74.6937 12.7333 74.6084 13.056 74.6084 13.408V18H72.9444ZM87.1631 10H88.8271V18H87.1631V10ZM88.0111 8.84C87.7551 8.84 87.5418 8.75733 87.3711 8.592C87.2005 8.42667 87.1151 8.21867 87.1151 7.968C87.1151 7.72267 87.2005 7.51733 87.3711 7.352C87.5418 7.18133 87.7525 7.096 88.0031 7.096C88.2485 7.096 88.4565 7.18133 88.6271 7.352C88.7978 7.51733 88.8831 7.72267 88.8831 7.968C88.8831 8.21867 88.7978 8.42667 88.6271 8.592C88.4618 8.75733 88.2565 8.84 88.0111 8.84ZM97.2533 11.664L92.8053 16.336H97.2533V18H90.4213V16.336L94.8693 11.664H90.4213V10H97.2533V11.664ZM109.422 6.8H111.086V18H109.422V12.832H104.358V18H102.694V6.8H104.358V11.168H109.422V6.8ZM113.007 18V6.8H117.127C117.735 6.8 118.282 6.94933 118.767 7.248C119.252 7.54667 119.636 7.94933 119.919 8.456C120.207 8.95733 120.351 9.51733 120.351 10.136C120.351 10.6587 120.252 11.136 120.055 11.568C119.863 12 119.591 12.368 119.239 12.672C118.892 12.976 118.495 13.1947 118.047 13.328L120.751 18H118.823L116.199 13.48H114.671V18H113.007ZM114.671 11.816H116.951C117.271 11.816 117.562 11.736 117.823 11.576C118.09 11.416 118.3 11.2027 118.455 10.936C118.61 10.6693 118.687 10.368 118.687 10.032C118.687 9.696 118.61 9.39467 118.455 9.128C118.3 8.856 118.09 8.64267 117.823 8.488C117.562 8.328 117.271 8.248 116.951 8.248H114.671V11.816Z" fill="white"/>
</svg>
